<?xml version="1.0" encoding="UTF-8"?>
<svg id="Capa_1" data-name="Capa 1" xmlns="http://www.w3.org/2000/svg" version="1.1" viewBox="0 0 154 59">
  <defs>
    <style>
      .cls-1 {
        fill: #fff;
      }

      .cls-1, .cls-2, .cls-3, .cls-4 {
        stroke-width: 0px;
      }

      .cls-1, .cls-3, .cls-4 {
        fill-rule: evenodd;
      }

      .cls-2 {
        fill: #fefefe;
      }

      .cls-3 {
        fill: #e70033;
      }

      .cls-4 {
        fill: #003d8e;
      }
    </style>
  </defs>
  <path class="cls-2" d="M85.63,21.2l-.29.61-6.8,14.12-.39-.33,3.15-6.58c.4-.85.69-1.56.75-2.3v-.03s.01-.2.01-.2c0-.77-.35-1.49-.86-2.01l-.03-.03-.02-.02c-.56-.5-1.23-.76-2.04-.98-.87-.22-1.82-.31-2.84-.31-2.19,0-4.1.36-5.69,1.14-1.59.77-2.82,1.97-3.59,3.49l-.85,1.51-.45.78s.4-.9.62-1.69c.12-.44.18-.86.18-1.26,0-.51-.11-1.01-.37-1.43-.39-.64-1.03-.98-1.61-1.13-.59-.16-1.18-.19-1.76-.19-.85,0-1.71.13-2.57.42-.06.02-.13.04-.19.07l1.75-3.65h-7.08l-3.12,6.49c.02-.16.03-.31.03-.47,0-.86-.29-1.7-.83-2.34-.51-.62-1.22-1.07-2.03-1.33-.81-.27-1.73-.38-2.78-.38-2.3,0-4.46.62-6.39,1.86-1.19.75-2.21,1.7-3.06,2.82,0-.07,0-.13,0-.2,0-.71-.14-1.39-.43-2.01-.39-.86-1.11-1.53-1.98-1.92-.88-.4-1.9-.56-3.06-.57-2.29,0-4.48.64-6.41,1.91-1.2.77-2.24,1.73-3.1,2.85l3.25-6.79h-6.75v-.02s-4.19,0-4.19,0c-1.37,0-2.88.28-4.21,1.04-.92.54-1.75,1.34-2.29,2.41l-.22.46h-1.54l-2.19,4.58h1.28l-3.85,8.02h7.08l3.87-8.02h1.8l-3.85,8.02h7.17l2.45-5.12c-.07.38-.12.76-.12,1.13,0,.75.17,1.49.54,2.13.46.79,1.18,1.38,2.04,1.73.86.35,1.84.5,2.97.5h0c1.94,0,3.73-.35,5.32-1.08,1.6-.75,2.95-1.84,4.01-3.29l.11-.15s0,.07,0,.1c0,.78.19,1.54.59,2.19.46.79,1.19,1.38,2.06,1.72.88.35,1.88.5,3.04.5h0c2.07,0,4.02-.5,5.76-1.49,1.05-.6,1.98-1.34,2.76-2.23l-1.61,3.35h7.08l3.02-6.3c.09-.24.7-1.06,1.29-1.42.17-.12.36-.2.51-.26-.07.19-.19.45-.33.75l-3.49,7.22h7.13l1.53-3.2c-.03.2-.05.4-.05.59,0,.53.13,1.08.42,1.54v.02s.02.02.02.02c.36.53.9.91,1.5,1.14.61.23,1.28.32,2.05.32.98,0,1.95-.14,2.87-.43.23-.07.46-.15.69-.24l-.05.25h74.06l7.89-16.41h-67.29ZM50.06,30.81h-6.63l-.31.53c-.27.46-.56.75-.86.96-.3.19-.56.26-.92.27-.02,0-.03,0-.05,0,.04-.28.2-.83.55-1.55.46-.95.95-1.61,1.36-1.97.39-.34.71-.45,1.15-.46h.03c-.02.05-.04.11-.06.17l-.55,1.45h6.59l-.29.59Z"/>
  <g>
    <polygon class="cls-3" points="86.31 22.27 79.44 36.54 144.35 36.54 151.22 22.27 86.31 22.27"/>
    <path class="cls-1" d="M121.7,23.52l-3.47,7.19c-.32.67-.69,1.22-1.28,1.49-.59.27-1.41.42-2.46.42s-1.81-.15-2.14-.42c-.33-.29-.45-.8-.13-1.47l3.49-7.21h-6.28l-3.62,7.5c-.71,1.45-.31,2.63.9,3.4,1.23.78,3.37,1.16,6.37,1.16s5.47-.38,7.41-1.16c1.94-.78,3.11-1.72,3.93-3.4l3.6-7.5h-6.32ZM146.06,26.91c.37-1.18-.02-2.1-1.16-2.73-1.15-.63-2.97-.95-5.47-.95s-4.73.34-6.5.99c-1.77.67-2.92,1.58-3.46,2.75-.28.57-.33,1.09-.16,1.53.16.46.56.84,1.14,1.18.34.15.86.32,1.63.5.78.19,1.82.38,3.17.61.17.02.42.06.75.13,1.64.25,2.35.61,2.15,1.03-.13.27-.43.48-.93.63-.48.15-1.1.23-1.83.23-.88,0-1.49-.11-1.85-.29-.36-.17-.52-.48-.49-.9h-6.09c-.42,1.26,0,2.25,1.18,2.94,1.19.69,3.08,1.03,5.66,1.03,2.81,0,5.15-.34,6.99-1.03,1.82-.69,3.05-1.7,3.65-2.98.28-.61.33-1.13.12-1.57-.18-.44-.64-.82-1.35-1.18-.56-.27-1.91-.59-4-.95-.48-.06-.82-.13-1.05-.17-.08,0-.19-.02-.34-.04-1.59-.27-2.28-.59-2.11-.99.13-.25.38-.46.76-.59.4-.15.93-.21,1.6-.21.76,0,1.3.08,1.64.25.33.17.48.44.41.78h5.95ZM102.54,23.88c-.53-.13-1.15-.21-1.91-.27-.75-.04-2.02-.08-3.74-.08h-7.92l-5.67,11.74h8.76c1.83,0,3.17-.04,3.99-.13.84-.08,1.6-.21,2.32-.4,1.05-.27,1.94-.67,2.66-1.18.72-.52,1.23-1.13,1.56-1.83.34-.72.35-1.28.08-1.72-.29-.46-.89-.8-1.84-1.01.91-.25,1.65-.59,2.24-.99.57-.38.98-.86,1.24-1.39.3-.67.31-1.24.02-1.72-.31-.46-.91-.82-1.79-1.03ZM96.86,31.42c-.19.4-.51.67-1.02.84-.47.17-1.2.25-2.17.25h-2.94l1.03-2.16h2.88c.97,0,1.64.08,1.97.25.33.17.42.44.24.82ZM98.21,27.2c-.17.38-.47.63-.89.78-.44.17-1.07.23-1.96.23h-2.56l.99-2.02h1.68c1.39,0,2.23.06,2.54.21.31.15.37.42.2.8Z"/>
    <path class="cls-4" d="M44.04,31.88c-.34.58-.74,1-1.19,1.3-.47.3-.96.45-1.52.45-.66,0-1.05-.24-1.12-.75-.07-.49.14-1.26.65-2.33.51-1.05,1.06-1.82,1.61-2.31.55-.49,1.17-.73,1.86-.73.56,0,.9.13,1.05.38.17.28.13.69-.08,1.24h4.73c.68-1.5.63-2.69-.11-3.57-.73-.9-2.06-1.33-3.98-1.33-2.12,0-4.04.56-5.81,1.69-1.75,1.11-3.11,2.67-4.04,4.62-.95,1.97-1.09,3.51-.4,4.64.67,1.15,2.06,1.71,4.18,1.71,1.9,0,3.66-.45,5.23-1.35,1.58-.9,2.81-2.12,3.66-3.68h-4.73ZM18.3,22.19l-6.89,14.35h4.79l6.87-14.35h-4.77ZM14.43,26.08h-1.95c.32-.6.47-.9.79-1.07.51-.26,1.2-.17,1.77-.13l1.29-2.71h-2.5c-1.22,0-2.57.26-3.67.9-.77.45-1.43,1.09-1.87,1.97l-.51,1.05h-1.54l-1.16,2.44h1.28l-3.85,8.02h4.71l3.87-8.02h2.16l1.18-2.44ZM35.11,26.1c-.58-1.26-1.95-1.88-4.07-1.88s-4.06.58-5.83,1.73c-1.79,1.15-3.17,2.72-4.12,4.71-.91,1.9-1.05,3.42-.4,4.55.67,1.13,2.02,1.69,4.07,1.69,1.82,0,3.44-.32,4.87-.98,1.45-.68,2.64-1.65,3.6-2.95h-4.53c-.28.32-.59.58-.98.75-.41.17-.81.26-1.28.26-.68,0-1.11-.21-1.29-.62-.19-.41-.11-1,.23-1.75h8.9l.15-.28c1.06-2.22,1.3-3.96.7-5.22ZM30.74,29.22h-4.21c.36-.68.8-1.22,1.36-1.6.55-.38,1.13-.58,1.75-.58.68,0,1.09.17,1.29.53.17.36.11.92-.18,1.65ZM80.34,28.56c.42-.88.65-1.56.65-2.05,0-.47-.2-.9-.56-1.28-.32-.3-.86-.53-1.59-.73-.75-.19-1.61-.28-2.57-.28-2.07,0-3.83.34-5.21,1.03-1.41.68-2.43,1.69-3.1,3.02h4.62c.25-.38.55-.68.89-.88.36-.19.79-.3,1.28-.3.58,0,.98.09,1.18.23.19.17.22.41.05.75-.3.62-1.23,1-2.8,1.15-.45.06-.81.09-1.09.13-2.14.26-3.7.66-4.7,1.22-.98.56-1.77,1.43-2.34,2.61-.57,1.2-.65,2.14-.24,2.8.43.64,1.31.98,2.66.98.88,0,1.73-.13,2.54-.38.83-.26,1.66-.64,2.54-1.18l-.25,1.13h4.73l.17-.34c-.13-.11-.17-.26-.19-.43,0-.17.06-.36.17-.58l3.17-6.63ZM74.32,31.45c-.04.09-.11.21-.17.39-.38.79-.85,1.37-1.38,1.73-.53.36-1.22.55-1.99.55-.45,0-.73-.11-.88-.28-.13-.19-.13-.47.04-.79.26-.54,1.04-.94,2.39-1.26.83-.19,1.54-.39,2.07-.56-.02.07-.04.15-.08.21ZM62.76,25.44c-.75,0-1.48.11-2.22.36-.73.24-2.13.94-2.86,1.41l2.37-4.94h-4.71l-6.85,14.27h4.71l2.73-5.69c.21-.45.85-1.33,1.68-1.86.92-.6,2.03-.77,2.25.17.09.3-.12.86-.53,1.69l-2.75,5.69h4.75l2.73-5.71c.61-1.26,1.08-2.14,1.23-2.72.63-2.33-.81-2.67-2.52-2.67Z"/>
  </g>
</svg>