<?xml version="1.0" encoding="utf-8"?>
<!-- Generator: Adobe Illustrator 16.0.0, SVG Export Plug-In . SVG Version: 6.00 Build 0)  -->
<!DOCTYPE svg PUBLIC "-//W3C//DTD SVG 1.1//EN" "http://www.w3.org/Graphics/SVG/1.1/DTD/svg11.dtd">
<svg version="1.1" id="Capa_1" xmlns="http://www.w3.org/2000/svg" xmlns:xlink="http://www.w3.org/1999/xlink" x="0px" y="0px"
	 width="504.98px" height="50px" viewBox="0 0 504.98 50" enable-background="new 0 0 504.98 50" xml:space="preserve">
<path fill="#45BB07" d="M118.618,20.358H90.367v-5.35h28.251V20.358L118.618,20.358z M432.214,46.068H415.74V15.008h-28.48v31.061
	h-16.021V3.921h49.057l1.898,0.152l1.82,0.453l1.75,0.677l1.592,0.979l1.363,1.207l1.219,1.432l0.984,1.585l0.766,1.73l0.371,1.816
	l0.154,1.805L432.214,46.068L432.214,46.068z M347.927,3.921h16.705v42.147h-16.705V3.921L347.927,3.921z M454.841,15.006v20.053
	h28.861v-4.521h-21.033v-10.18h25.285l1.822,0.15l1.822,0.452l1.74,0.68l1.604,0.981l1.441,1.205l1.215,1.432l0.988,1.584
	l0.678,1.736l0.459,1.803l0.15,1.891v1.963l-0.15,1.813l-0.459,1.813l-0.678,1.721l-0.988,1.59l-1.215,1.426l-1.441,1.213
	l-1.604,0.98l-1.74,0.678l-1.822,0.447l-1.822,0.154h-37.361l-1.898-0.154l-1.822-0.447l-1.668-0.678l-1.596-0.98l-1.447-1.213
	l-1.213-1.426l-0.982-1.59l-0.686-1.721l-0.451-1.813l-0.156-1.813V15.759l0.156-1.813l0.451-1.808l0.686-1.73l0.982-1.585
	l1.213-1.432l1.447-1.207l1.596-0.979l1.668-0.677l1.822-0.453l1.898-0.149h49.283v11.082h-45.035V15.006z M279.185,3.921h61.656
	v11.083h-22.855v31.064h-16.475V15.004h-22.326V3.921L279.185,3.921z M273.638,18.699l-0.148,1.81l-0.451,1.811l-0.688,1.737
	l-0.981,1.582l-1.215,1.434l-1.439,1.21l-1.602,0.977l-1.746,0.675l-1.822,0.45l-1.609,0.138l-0.207,0.021v0.83V31.6l11.008,14.479
	h-17.084l-19.594-25.72h19.818v-5.352h-28.25v31.072H211.61V3.921h50.119l1.815,0.152l1.822,0.451l1.746,0.68l1.602,0.979
	l1.439,1.207l1.215,1.432l0.982,1.585l0.688,1.733l0.451,1.806l0.149,1.813L273.638,18.699L273.638,18.699z M187.586,35.059h-27.794
	v-0.455h-0.378V15.009h28.172V35.059L187.586,35.059z M193.892,45.92l1.82-0.453l1.746-0.678l1.592-0.98l1.37-1.201l1.215-1.438
	l0.992-1.59l0.753-1.721l0.379-1.813l0.149-1.81V15.759l-0.149-1.805l-0.379-1.816l-0.753-1.73l-0.992-1.585l-1.215-1.436
	l-1.37-1.203l-1.592-0.979l-1.746-0.677l-1.82-0.453l-1.903-0.152h-37.435l-1.82,0.152l-1.823,0.453l-1.75,0.677l-1.591,0.979
	l-1.445,1.203l-1.217,1.436l-0.986,1.585l-0.683,1.73l-0.452,1.816l-0.159,1.805v18.479l0.159,1.809l0.452,1.813l0.683,1.723
	l0.986,1.59l1.217,1.438l1.445,1.201l1.591,0.979l1.75,0.678l1.823,0.453l1.82,0.147h37.435L193.892,45.92L193.892,45.92z
	 M66.685,3.921v11.083H22.262v5.354h32.503l1.901,0.15l1.817,0.452l1.75,0.68l1.592,0.981l1.369,1.205l1.212,1.432l0.988,1.584
	l0.76,1.736l0.454,1.803l0.076,1.891v1.963l-0.076,1.813l-0.454,1.802l-0.76,1.731l-0.988,1.59l-1.212,1.427l-1.369,1.213
	l-1.592,0.979l-1.75,0.672l-1.817,0.453l-1.901,0.153H5.104v-11.01h45.331v-4.521H17.028l-1.827-0.156l-1.824-0.441l-1.745-0.684
	l-1.595-0.979L8.593,27.07L7.38,25.637l-0.988-1.582l-0.679-1.734l-0.46-1.813l-0.148-1.805v-2.945l0.148-1.813l0.46-1.806
	l0.679-1.733L7.38,8.821L8.593,7.39l1.444-1.207l1.595-0.979l1.745-0.677l1.824-0.453l1.827-0.152L66.685,3.921L66.685,3.921z
	 M73.967,3.921v42.147h16.402V30.537h33.188l1.897-0.156l1.821-0.443l1.669-0.682l1.597-0.984l1.444-1.201l1.209-1.434l0.988-1.581
	l0.756-1.737l0.385-1.811l0.151-1.81v-2.94l-0.151-1.813l-0.385-1.806l-0.756-1.733l-0.988-1.585l-1.209-1.432l-1.444-1.207
	l-1.597-0.977l-1.669-0.68l-1.821-0.453l-1.897-0.152L73.967,3.921L73.967,3.921z"/>
</svg>
