<svg version="1.1"
	 xmlns="http://www.w3.org/2000/svg" xmlns:xlink="http://www.w3.org/1999/xlink" xmlns:a="http://ns.adobe.com/AdobeSVGViewerExtensions/3.0/"
	 x="0px" y="0px" width="200px" height="129.9px" viewBox="0 0 200 129.9" style="enable-background:new 0 0 200 129.9;"
	 xml:space="preserve">
<style type="text/css">
	.st0{fill:#000000;}
</style>
<defs>
</defs>
<g>
	<path class="st0" d="M200,45.6c-0.5,1.3-1.2,2.5-2.5,3.2c-0.9,0.5-1.9,0.8-2.8,1.2c-2.7,1.1-5.4,2.3-8.2,3.4
		c-2.3,1-4.6,1.9-6.9,2.9c-2.4,1-4.9,2-7.3,3c-3.5,1.5-7.1,2.9-10.6,4.4c-3.4,1.4-6.9,2.9-10.3,4.3c-4.1,1.7-8.2,3.4-12.3,5.1
		c-3.6,1.5-7.1,3-10.7,4.5c-3.4,1.4-6.9,2.8-10.3,4.3c-3.2,1.4-6.5,2.7-9.7,4.1c-2,0.8-4,1.7-6.1,2.3c-2.2,0.6-4.4,0.3-6.5-0.6
		c-2.4-1-4.8-2-7.2-3c-2.4-1-4.8-2-7.2-3c-3.8-1.6-7.5-3.1-11.3-4.7c-4.1-1.7-8.2-3.5-12.4-5.2c-3.7-1.6-7.5-3.1-11.2-4.6
		c-3.4-1.4-6.9-2.9-10.3-4.3c-4.1-1.7-8.2-3.4-12.3-5.1c-3.6-1.5-7.1-3-10.7-4.5c-3.4-1.4-6.9-2.8-10.3-4.3c-1.4-0.6-2.3-1.6-2.8-3
		c0-0.1-0.1-0.2-0.1-0.3c0-0.8,0-1.6,0-2.5c0.5-1.4,1.3-2.6,2.7-3.3c1.5-0.7,3-1.3,4.6-1.9c2.9-1.2,5.7-2.4,8.6-3.6
		c3-1.3,6-2.6,9-3.8c3.8-1.6,7.6-3.1,11.3-4.7c3.4-1.4,6.9-2.9,10.3-4.3c3.7-1.6,7.5-3.1,11.2-4.6c4.1-1.7,8.2-3.5,12.4-5.2
		c3.7-1.6,7.5-3.1,11.3-4.7c2.4-1,4.8-2,7.2-3c2.4-1,4.8-2,7.2-3c2.1-0.9,4.3-1.1,6.5-0.6c1.4,0.3,2.7,1,4.1,1.5
		c3.2,1.3,6.4,2.6,9.6,4c3.2,1.4,6.5,2.7,9.7,4.1c4,1.6,7.9,3.3,11.9,4.9c4.1,1.7,8.2,3.5,12.4,5.2c3.4,1.4,6.9,2.8,10.3,4.3
		c4.7,1.9,9.3,3.9,14,5.9c4.1,1.7,8.3,3.5,12.4,5.2c2.4,1,4.8,2,7.2,3c1.1,0.5,2.3,0.9,3.4,1.4c1.5,0.7,2.3,1.9,2.8,3.3
		C200,43.9,200,44.7,200,45.6z M100,11.7c-1.3,0-2.5,0.4-3.7,1c-3.2,1.4-6.5,2.7-9.7,4.1c-2.9,1.2-5.8,2.4-8.7,3.6
		c-3,1.3-6,2.6-9,3.8c-3.8,1.6-7.6,3.1-11.3,4.7c-3.2,1.3-6.4,2.7-9.6,4.1c-3.8,1.6-7.6,3.1-11.3,4.7c-2.4,1-4.9,2-7.3,3
		c-2.4,1-4.7,2-7.1,3c-0.3,0.1-0.6,0.4-0.6,0.7c0,0.2,0.3,0.5,0.6,0.6c1.6,0.7,3.2,1.3,4.8,2c4.5,1.9,8.9,3.7,13.4,5.6
		c4.7,2,9.3,4,14,5.9c4.4,1.8,8.8,3.7,13.2,5.5c4.9,2,9.8,4.1,14.6,6.2c4.7,2,9.4,3.9,14.1,5.9c1.9,0.8,3.8,1.2,5.8,0.6
		c1.4-0.4,2.7-1.1,4-1.6c3-1.3,6-2.6,9-3.8c3.4-1.4,6.9-2.8,10.3-4.3c3.6-1.5,7.1-3,10.7-4.5c3.5-1.5,7.1-3,10.6-4.4
		c2.4-1,4.9-2,7.3-3c2.3-0.9,4.5-1.9,6.8-2.9c2.7-1.1,5.4-2.3,8.1-3.4c3-1.2,5.9-2.5,8.9-3.7c0.3-0.1,0.6-0.4,0.6-0.7
		c0-0.2-0.3-0.6-0.6-0.7c-2.7-1.2-5.3-2.3-8-3.4c-4-1.6-7.9-3.3-11.9-4.9c-4.1-1.7-8.2-3.5-12.4-5.2c-4.1-1.7-8.2-3.4-12.4-5.1
		c-2.4-1-4.9-2-7.3-3c-2.2-0.9-4.5-1.9-6.7-2.8c-2.7-1.1-5.4-2.3-8.1-3.4c-2.4-1-4.8-2-7.2-3C102.6,12.2,101.4,11.7,100,11.7z"/>
	<path class="st0" d="M114.1,129.9c-0.9-0.3-1.9-0.5-2.8-0.9c-1.9-0.8-3.4-2-4.3-3.8c0-0.1-0.1-0.1-0.2-0.3c0,1.5,0,2.9,0,4.4
		c-2.8,0-5.5,0-8.2,0c0-11.7,0-23.3,0-35c3,0,5.9,0,9,0c0,4,0,8.1,0,12.3c1.6-1.9,3.5-3,5.8-3.5c4.2-0.9,7.9-0.1,10.9,3.2
		c1.7,1.9,2.8,4.3,3.1,6.9c0.2,1.2,0.3,2.5,0.3,3.7c-0.1,3.2-0.9,6.3-2.9,8.8c-1.7,2.2-4,3.7-6.9,4c-0.1,0-0.1,0.1-0.1,0.1
		C116.4,129.9,115.2,129.9,114.1,129.9z M113,109.6c-1.5-0.1-2.7,0.5-3.7,1.5c-1.1,1.2-1.6,2.5-1.8,4.1c-0.4,2.5,0.2,4.8,2,6.6
		c2.2,2.3,6,1.9,7.7-0.8c1.6-2.5,1.8-5.3,0.7-8C117.1,110.8,115.4,109.6,113,109.6z"/>
	<path class="st0" d="M161.1,129.9c-1-0.2-2-0.4-3-0.7c-4.8-1.4-8-4.4-9.2-9.3c-0.8-3.3-0.6-6.6,1-9.7c1.9-3.9,5.2-6,9.3-6.9
		c1.4-0.3,2.8-0.5,4.3-0.5c2.5,0,5,0.4,7.3,1.4c1.7,0.8,3.2,1.8,4.5,3.1c1.6,1.7,2.6,3.7,3,6c0.2,1.4,0.4,2.8,0.3,4.3
		c-0.3,3.6-1.7,6.7-4.6,9.1c-2.3,1.8-4.9,2.8-7.7,3.1c-0.1,0-0.1,0.1-0.2,0.1C164.4,129.9,162.7,129.9,161.1,129.9z M169.6,116.2
		c-0.1-0.6-0.1-1.3-0.2-1.9c-0.3-1.9-1.1-3.5-2.7-4.5c-2.8-1.9-6.4-1-8,1.7c-1.1,1.7-1.4,3.6-1.3,5.6c0.1,2.4,1,4.4,2.9,5.9
		c2.7,2.1,6.5,1.1,8.1-1.8C169.3,119.5,169.6,117.9,169.6,116.2z"/>
	<path class="st0" d="M32.2,129.9c-1-0.2-2-0.4-3-0.7c-3.8-1.1-6.8-4-7.5-8.1c-0.2-1.2-0.3-2.3-0.3-3.5c0-4.5,0-8.9,0-13.4
		c0-0.2,0-0.5,0-0.8c3,0,6,0,9.1,0c0,0.3,0,0.5,0,0.7c0,4.8,0,9.5,0,14.3c0,1.3,0.3,2.6,1.2,3.5c0.5,0.6,1.4,1,2.1,1.2
		c1.5,0.3,3,0.1,4.2-1.1c0.8-0.9,1.1-2,1.1-3.2c0.1-4.9,0.1-9.9,0.1-14.8c0-0.2,0-0.4,0-0.6c3,0,6,0,9.1,0c0,0.3,0,0.5,0,0.7
		c0,4.4,0,8.8,0,13.2c0,2.1-0.2,4.1-1.1,6.1c-0.9,2.1-2.3,3.6-4.3,4.7c-1.7,0.9-3.5,1.5-5.5,1.7c-0.1,0-0.1,0.1-0.1,0.1
		C35.6,129.9,33.9,129.9,32.2,129.9z"/>
	<path class="st0" d="M78,129.3c-3,0-6,0-9.1,0c0-0.3,0-0.5,0-0.7c0-4.4,0-8.8,0-13.2c0-1.1-0.2-2.2-0.7-3.2c-0.8-1.6-2.4-2-3.9-1.7
		c-2.1,0.5-3.1,2.1-3.5,4c-0.3,1.2-0.4,2.4-0.4,3.6c-0.1,3.5,0,6.9,0,10.4c0,0.2,0,0.5,0,0.8c-3,0-6,0-9,0c0-8.6,0-17.2,0-25.8
		c2.7,0,5.4,0,8.2,0c0,1.4,0,2.9,0,4.4c0.5-0.6,0.9-1.2,1.3-1.7c1.4-1.9,3.5-2.7,5.7-3.1c0.7-0.1,1.5-0.3,2.3-0.3
		c2.1,0.1,4.2,0.4,6,1.8c1,0.8,1.7,1.8,2.2,2.8c0.9-0.9,1.8-1.8,2.7-2.6c1.1-1,2.5-1.5,3.9-1.7c2.5-0.4,4.9-0.4,7.3,0.6
		c2.1,0.9,3.2,2.5,3.8,4.6c0.6,2,0.7,4,0.7,6.1c0,5,0,10,0,15c-3,0-6,0-9.1,0c0-0.2,0-0.5,0-0.7c0-4.3,0-8.7,0-13
		c0-0.8-0.1-1.7-0.3-2.5c-0.8-2.9-3.6-3.2-5.6-1.9c-1.5,0.9-2,2.5-2.3,4c-0.2,1.2-0.3,2.5-0.3,3.7C78,122.3,78,125.7,78,129.3z"/>
	<path class="st0" d="M148,103c0,2.6,0,5.1,0,7.6c-1.7-0.2-3.3-0.4-4.9,0c-1.8,0.5-2.9,1.7-3.7,3.3c-0.7,1.5-0.8,3.1-0.8,4.7
		c0,3.3,0,6.5,0,9.8c0,0.2,0,0.5,0,0.8c-3,0-6,0-9,0c0-8.6,0-17.2,0-25.8c2.7,0,5.4,0,8.2,0c0,1.5,0,3,0,4.5
		c1.1-1.8,2.2-3.5,4.2-4.4C143.9,102.6,145.9,102.7,148,103z"/>
	<path class="st0" d="M100.3,23c1,0.4,2.2,0.7,3.3,1.2c3.8,1.5,7.6,3.1,11.3,4.7c3.6,1.5,7.1,3,10.7,4.5c3.2,1.3,6.4,2.6,9.6,4
		c3.2,1.4,6.5,2.7,9.7,4.1c0.5,0.2,1,0.4,1.4,0.6c1.1,0.5,1.6,1.3,1.5,2.4c-0.1,1.1-0.7,1.8-1.8,2.2c-2.7,1.1-5.4,2.3-8.1,3.4
		c-2.3,1-4.5,1.9-6.8,2.9c-2.4,1-4.9,2-7.3,3c-4.1,1.7-8.2,3.4-12.3,5.1c-3.2,1.4-6.5,2.7-9.7,4.1c-1.3,0.5-2.6,0.5-3.8,0
		c-2.4-1-4.7-2-7.1-3c-2.4-1-4.9-2-7.3-3c-3.8-1.6-7.6-3.1-11.4-4.7c-3.6-1.5-7.1-3-10.7-4.5c-2.6-1.1-5.3-2.2-7.9-3.3
		c-1-0.4-1.5-1.1-1.6-2.2c-0.1-1,0.4-1.9,1.4-2.3c2.3-1,4.7-2,7-3c2.5-1,5-2.1,7.4-3.1c4.1-1.7,8.2-3.4,12.2-5.1
		c4.7-2,9.3-3.9,14-5.9c1.4-0.6,2.7-1.2,4.1-1.7C98.8,23.2,99.4,23.1,100.3,23z M76.9,44.3c0.3,0.2,0.5,0.3,0.7,0.4
		c2.8,1.2,5.7,2.4,8.5,3.6c4.3,1.8,8.7,3.6,13.1,5.4c0.6,0.2,1.1,0.3,1.7,0c1.2-0.5,2.4-1,3.6-1.5c2.4-1,4.7-2,7.1-3
		c2.4-1,4.9-2,7.3-3.1c1.3-0.6,2.7-1.1,4.2-1.7c-0.3-0.2-0.5-0.3-0.7-0.4c-2.6-1.1-5.2-2.2-7.8-3.3c-4.6-1.9-9.1-3.8-13.7-5.7
		c-0.6-0.2-1.1-0.3-1.7,0c-3.3,1.4-6.7,2.8-10,4.2c-2.4,1-4.9,2-7.3,3C80.3,42.8,78.7,43.5,76.9,44.3z"/>
</g>
</svg>
